<svg xmlns="http://www.w3.org/2000/svg" viewBox="0 0 63 66" width="63" height="66">
<defs><linearGradient id="g_blob_lavender" gradientUnits="userSpaceOnUse" x1="14.4" y1="21.9" x2="37.0" y2="54.1"><stop offset="10%" stop-color="rgb(221,204,252)"/><stop offset="30%" stop-color="rgb(218,194,252)"/><stop offset="50%" stop-color="rgb(216,188,252)"/><stop offset="70%" stop-color="rgb(218,188,252)"/><stop offset="90%" stop-color="rgb(221,195,252)"/></linearGradient></defs>
<path d="M 32.00,56.50 C 28.92,57.42 25.17,56.83 23.00,56.50 C 20.83,56.17 21.08,56.25 19.00,54.50 C 16.92,52.75 12.25,48.42 10.50,46.00 C 8.75,43.58 8.83,41.83 8.50,40.00 C 8.17,38.17 7.67,37.50 8.50,35.00 C 9.33,32.50 11.25,28.08 13.50,25.00 C 15.75,21.92 19.75,17.58 22.00,16.50 C 24.25,15.42 25.58,17.58 27.00,18.50 C 28.42,19.42 29.42,20.25 30.50,22.00 C 31.58,23.75 32.25,27.58 33.50,29.00 C 34.75,30.42 36.00,28.67 38.00,30.50 C 40.00,32.33 44.25,37.58 45.50,40.00 C 46.75,42.42 46.17,43.17 45.50,45.00 C 44.83,46.83 43.75,49.08 41.50,51.00 C 39.25,52.92 35.08,55.58 32.00,56.50 Z" fill="url(#g_blob_lavender)"/></svg>