<svg xmlns="http://www.w3.org/2000/svg" viewBox="0 0 55 58" width="55" height="58">
<defs><linearGradient id="g_blob_teal" gradientUnits="userSpaceOnUse" x1="40.4" y1="19.6" x2="12.8" y2="35.1"><stop offset="10%" stop-color="rgb(186,192,247)"/><stop offset="30%" stop-color="rgb(182,196,250)"/><stop offset="50%" stop-color="rgb(192,195,250)"/><stop offset="70%" stop-color="rgb(206,190,250)"/><stop offset="90%" stop-color="rgb(209,190,245)"/></linearGradient></defs>
<path d="M 16.00,40.50 C 14.58,40.92 14.42,40.08 14.50,39.00 C 14.58,37.92 16.33,36.67 16.50,34.00 C 16.67,31.33 14.25,26.42 15.50,23.00 C 16.75,19.58 21.25,15.08 24.00,13.50 C 26.75,11.92 29.25,12.58 32.00,13.50 C 34.75,14.42 38.75,16.58 40.50,19.00 C 42.25,21.42 42.92,25.25 42.50,28.00 C 42.08,30.75 39.42,33.92 38.00,35.50 C 36.58,37.08 36.50,37.33 34.00,37.50 C 31.50,37.67 26.00,36.00 23.00,36.50 C 20.00,37.00 17.42,40.08 16.00,40.50 Z" fill="url(#g_blob_teal)"/></svg>