<svg xmlns="http://www.w3.org/2000/svg" viewBox="0 0 72 58" width="72" height="58">
<defs><linearGradient id="g_blob_aqua" gradientUnits="userSpaceOnUse" x1="41.7" y1="7.4" x2="13.2" y2="48.1"><stop offset="10%" stop-color="rgb(200,178,246)"/><stop offset="30%" stop-color="rgb(195,173,246)"/><stop offset="50%" stop-color="rgb(192,194,250)"/><stop offset="70%" stop-color="rgb(148,206,250)"/><stop offset="90%" stop-color="rgb(135,215,248)"/></linearGradient></defs>
<path d="M 25.00,49.50 C 22.50,50.00 18.58,50.25 16.00,49.50 C 13.42,48.75 10.92,46.42 9.50,45.00 C 8.08,43.58 7.67,43.17 7.50,41.00 C 7.33,38.83 7.75,34.25 8.50,32.00 C 9.25,29.75 9.75,29.08 12.00,27.50 C 14.25,25.92 19.00,24.83 22.00,22.50 C 25.00,20.17 27.67,15.67 30.00,13.50 C 32.33,11.33 33.67,10.33 36.00,9.50 C 38.33,8.67 42.42,8.42 44.00,8.50 C 45.58,8.58 45.92,9.08 45.50,10.00 C 45.08,10.92 42.17,12.67 41.50,14.00 C 40.83,15.33 42.08,16.75 41.50,18.00 C 40.92,19.25 39.25,20.92 38.00,21.50 C 36.75,22.08 34.92,21.25 34.00,21.50 C 33.08,21.75 32.75,21.58 32.50,23.00 C 32.25,24.42 32.00,27.83 32.50,30.00 C 33.00,32.17 35.00,34.33 35.50,36.00 C 36.00,37.67 36.25,38.25 35.50,40.00 C 34.75,41.75 32.75,44.92 31.00,46.50 C 29.25,48.08 27.50,49.00 25.00,49.50 Z" fill="url(#g_blob_aqua)"/></svg>