<svg xmlns="http://www.w3.org/2000/svg" viewBox="0 0 46 74" width="46" height="74">
<defs><linearGradient id="g_blob_yellowpurple" gradientUnits="userSpaceOnUse" x1="21.5" y1="8.8" x2="24.4" y2="65.2"><stop offset="10%" stop-color="rgb(230,244,105)"/><stop offset="30%" stop-color="rgb(231,245,127)"/><stop offset="50%" stop-color="rgb(224,245,169)"/><stop offset="70%" stop-color="rgb(194,242,217)"/><stop offset="90%" stop-color="rgb(184,239,246)"/></linearGradient></defs>
<path d="M 32.00,64.50 C 29.25,65.08 21.58,66.58 18.00,65.50 C 14.42,64.42 11.75,60.42 10.50,58.00 C 9.25,55.58 9.83,52.83 10.50,51.00 C 11.17,49.17 13.83,48.67 14.50,47.00 C 15.17,45.33 15.50,43.83 14.50,41.00 C 13.50,38.17 9.67,34.00 8.50,30.00 C 7.33,26.00 6.58,20.42 7.50,17.00 C 8.42,13.58 12.42,10.92 14.00,9.50 C 15.58,8.08 14.67,8.67 17.00,8.50 C 19.33,8.33 25.50,8.17 28.00,8.50 C 30.50,8.83 30.58,9.25 32.00,10.50 C 33.42,11.75 35.75,13.08 36.50,16.00 C 37.25,18.92 37.17,24.33 36.50,28.00 C 35.83,31.67 33.17,35.17 32.50,38.00 C 31.83,40.83 31.83,43.00 32.50,45.00 C 33.17,47.00 35.67,48.17 36.50,50.00 C 37.33,51.83 37.83,54.00 37.50,56.00 C 37.17,58.00 35.42,60.58 34.50,62.00 C 33.58,63.42 34.75,63.92 32.00,64.50 Z" fill="url(#g_blob_yellowpurple)"/></svg>