<svg xmlns="http://www.w3.org/2000/svg" viewBox="0 0 75 74" width="75" height="74">
<defs><linearGradient id="g_blob_lime" gradientUnits="userSpaceOnUse" x1="63.2" y1="61.8" x2="12.7" y2="13.2"><stop offset="10%" stop-color="rgb(125,232,241)"/><stop offset="30%" stop-color="rgb(163,234,206)"/><stop offset="50%" stop-color="rgb(217,242,154)"/><stop offset="70%" stop-color="rgb(232,245,124)"/><stop offset="90%" stop-color="rgb(232,245,106)"/></linearGradient></defs>
<path d="M 59.00,65.50 C 56.08,66.58 52.33,67.17 49.00,64.50 C 45.67,61.83 44.00,52.67 39.00,49.50 C 34.00,46.33 23.92,47.58 19.00,45.50 C 14.08,43.42 11.42,41.08 9.50,37.00 C 7.58,32.92 7.50,24.50 7.50,21.00 C 7.50,17.50 7.75,18.25 9.50,16.00 C 11.25,13.75 14.58,9.08 18.00,7.50 C 21.42,5.92 27.00,6.33 30.00,6.50 C 33.00,6.67 33.58,6.25 36.00,8.50 C 38.42,10.75 42.58,15.58 44.50,20.00 C 46.42,24.42 46.25,31.75 47.50,35.00 C 48.75,38.25 49.92,38.42 52.00,39.50 C 54.08,40.58 57.75,40.42 60.00,41.50 C 62.25,42.58 64.42,43.25 65.50,46.00 C 66.58,48.75 67.58,54.75 66.50,58.00 C 65.42,61.25 61.92,64.42 59.00,65.50 Z" fill="url(#g_blob_lime)"/></svg>