<svg xmlns="http://www.w3.org/2000/svg" viewBox="0 0 140 130" width="140" height="130" ><circle cx="60.0" cy="14" r="2.1" fill="#5aa8e8" opacity="0.40"/><circle cx="53.5" cy="27" r="2.1" fill="#5aa8e8" opacity="0.47"/><circle cx="66.5" cy="27" r="2.1" fill="#5aa8e8" opacity="0.47"/><circle cx="47.0" cy="40" r="2.1" fill="#5aa8e8" opacity="0.54"/><circle cx="60.0" cy="40" r="2.1" fill="#5aa8e8" opacity="0.54"/><circle cx="73.0" cy="40" r="2.1" fill="#5aa8e8" opacity="0.54"/><circle cx="40.5" cy="53" r="2.1" fill="#5aa8e8" opacity="0.61"/><circle cx="53.5" cy="53" r="2.1" fill="#5aa8e8" opacity="0.61"/><circle cx="66.5" cy="53" r="2.1" fill="#5aa8e8" opacity="0.61"/><circle cx="79.5" cy="53" r="2.1" fill="#5aa8e8" opacity="0.61"/><circle cx="34.0" cy="66" r="2.1" fill="#5aa8e8" opacity="0.68"/><circle cx="47.0" cy="66" r="2.1" fill="#5aa8e8" opacity="0.68"/><circle cx="60.0" cy="66" r="2.1" fill="#5aa8e8" opacity="0.68"/><circle cx="73.0" cy="66" r="2.1" fill="#5aa8e8" opacity="0.68"/><circle cx="86.0" cy="66" r="2.1" fill="#5aa8e8" opacity="0.68"/><circle cx="27.5" cy="79" r="2.1" fill="#5aa8e8" opacity="0.74"/><circle cx="40.5" cy="79" r="2.1" fill="#5aa8e8" opacity="0.74"/><circle cx="53.5" cy="79" r="2.1" fill="#5aa8e8" opacity="0.74"/><circle cx="66.5" cy="79" r="2.1" fill="#5aa8e8" opacity="0.74"/><circle cx="79.5" cy="79" r="2.1" fill="#5aa8e8" opacity="0.74"/><circle cx="92.5" cy="79" r="2.1" fill="#5aa8e8" opacity="0.74"/><circle cx="21.0" cy="92" r="2.1" fill="#5aa8e8" opacity="0.81"/><circle cx="34.0" cy="92" r="2.1" fill="#5aa8e8" opacity="0.81"/><circle cx="47.0" cy="92" r="2.1" fill="#5aa8e8" opacity="0.81"/><circle cx="60.0" cy="92" r="2.1" fill="#5aa8e8" opacity="0.81"/><circle cx="73.0" cy="92" r="2.1" fill="#5aa8e8" opacity="0.81"/><circle cx="86.0" cy="92" r="2.1" fill="#5aa8e8" opacity="0.81"/><circle cx="99.0" cy="92" r="2.1" fill="#5aa8e8" opacity="0.81"/><circle cx="14.5" cy="105" r="2.1" fill="#5aa8e8" opacity="0.88"/><circle cx="27.5" cy="105" r="2.1" fill="#5aa8e8" opacity="0.88"/><circle cx="40.5" cy="105" r="2.1" fill="#5aa8e8" opacity="0.88"/><circle cx="53.5" cy="105" r="2.1" fill="#5aa8e8" opacity="0.88"/><circle cx="66.5" cy="105" r="2.1" fill="#5aa8e8" opacity="0.88"/><circle cx="79.5" cy="105" r="2.1" fill="#5aa8e8" opacity="0.88"/><circle cx="92.5" cy="105" r="2.1" fill="#5aa8e8" opacity="0.88"/><circle cx="105.5" cy="105" r="2.1" fill="#5aa8e8" opacity="0.88"/></svg>