<svg xmlns="http://www.w3.org/2000/svg" viewBox="0 0 120 120" width="120" height="120" ><circle cx="12" cy="12" r="2" fill="#9b86e6" opacity="0.35"/><circle cx="24" cy="12" r="2" fill="#9b86e6" opacity="0.39"/><circle cx="36" cy="12" r="2" fill="#9b86e6" opacity="0.42"/><circle cx="48" cy="12" r="2" fill="#9b86e6" opacity="0.46"/><circle cx="60" cy="12" r="2" fill="#9b86e6" opacity="0.50"/><circle cx="72" cy="12" r="2" fill="#9b86e6" opacity="0.54"/><circle cx="84" cy="12" r="2" fill="#9b86e6" opacity="0.57"/><circle cx="96" cy="12" r="2" fill="#9b86e6" opacity="0.61"/><circle cx="108" cy="12" r="2" fill="#9b86e6" opacity="0.65"/><circle cx="12" cy="24" r="2" fill="#9b86e6" opacity="0.39"/><circle cx="24" cy="24" r="2" fill="#9b86e6" opacity="0.42"/><circle cx="36" cy="24" r="2" fill="#9b86e6" opacity="0.46"/><circle cx="48" cy="24" r="2" fill="#9b86e6" opacity="0.50"/><circle cx="60" cy="24" r="2" fill="#9b86e6" opacity="0.54"/><circle cx="72" cy="24" r="2" fill="#9b86e6" opacity="0.57"/><circle cx="84" cy="24" r="2" fill="#9b86e6" opacity="0.61"/><circle cx="96" cy="24" r="2" fill="#9b86e6" opacity="0.65"/><circle cx="108" cy="24" r="2" fill="#9b86e6" opacity="0.69"/><circle cx="12" cy="36" r="2" fill="#9b86e6" opacity="0.42"/><circle cx="24" cy="36" r="2" fill="#9b86e6" opacity="0.46"/><circle cx="36" cy="36" r="2" fill="#9b86e6" opacity="0.50"/><circle cx="48" cy="36" r="2" fill="#9b86e6" opacity="0.54"/><circle cx="60" cy="36" r="2" fill="#9b86e6" opacity="0.57"/><circle cx="72" cy="36" r="2" fill="#9b86e6" opacity="0.61"/><circle cx="84" cy="36" r="2" fill="#9b86e6" opacity="0.65"/><circle cx="96" cy="36" r="2" fill="#9b86e6" opacity="0.69"/><circle cx="108" cy="36" r="2" fill="#9b86e6" opacity="0.72"/><circle cx="12" cy="48" r="2" fill="#9b86e6" opacity="0.46"/><circle cx="24" cy="48" r="2" fill="#9b86e6" opacity="0.50"/><circle cx="36" cy="48" r="2" fill="#9b86e6" opacity="0.54"/><circle cx="48" cy="48" r="2" fill="#9b86e6" opacity="0.57"/><circle cx="60" cy="48" r="2" fill="#9b86e6" opacity="0.61"/><circle cx="72" cy="48" r="2" fill="#9b86e6" opacity="0.65"/><circle cx="84" cy="48" r="2" fill="#9b86e6" opacity="0.69"/><circle cx="96" cy="48" r="2" fill="#9b86e6" opacity="0.72"/><circle cx="108" cy="48" r="2" fill="#9b86e6" opacity="0.76"/><circle cx="12" cy="60" r="2" fill="#9b86e6" opacity="0.50"/><circle cx="24" cy="60" r="2" fill="#9b86e6" opacity="0.54"/><circle cx="36" cy="60" r="2" fill="#9b86e6" opacity="0.57"/><circle cx="48" cy="60" r="2" fill="#9b86e6" opacity="0.61"/><circle cx="60" cy="60" r="2" fill="#9b86e6" opacity="0.65"/><circle cx="72" cy="60" r="2" fill="#9b86e6" opacity="0.69"/><circle cx="84" cy="60" r="2" fill="#9b86e6" opacity="0.72"/><circle cx="96" cy="60" r="2" fill="#9b86e6" opacity="0.76"/><circle cx="108" cy="60" r="2" fill="#9b86e6" opacity="0.80"/><circle cx="12" cy="72" r="2" fill="#9b86e6" opacity="0.54"/><circle cx="24" cy="72" r="2" fill="#9b86e6" opacity="0.57"/><circle cx="36" cy="72" r="2" fill="#9b86e6" opacity="0.61"/><circle cx="48" cy="72" r="2" fill="#9b86e6" opacity="0.65"/><circle cx="60" cy="72" r="2" fill="#9b86e6" opacity="0.69"/><circle cx="72" cy="72" r="2" fill="#9b86e6" opacity="0.72"/><circle cx="84" cy="72" r="2" fill="#9b86e6" opacity="0.76"/><circle cx="96" cy="72" r="2" fill="#9b86e6" opacity="0.80"/><circle cx="108" cy="72" r="2" fill="#9b86e6" opacity="0.84"/><circle cx="12" cy="84" r="2" fill="#9b86e6" opacity="0.57"/><circle cx="24" cy="84" r="2" fill="#9b86e6" opacity="0.61"/><circle cx="36" cy="84" r="2" fill="#9b86e6" opacity="0.65"/><circle cx="48" cy="84" r="2" fill="#9b86e6" opacity="0.69"/><circle cx="60" cy="84" r="2" fill="#9b86e6" opacity="0.72"/><circle cx="72" cy="84" r="2" fill="#9b86e6" opacity="0.76"/><circle cx="84" cy="84" r="2" fill="#9b86e6" opacity="0.80"/><circle cx="96" cy="84" r="2" fill="#9b86e6" opacity="0.84"/><circle cx="108" cy="84" r="2" fill="#9b86e6" opacity="0.88"/><circle cx="12" cy="96" r="2" fill="#9b86e6" opacity="0.61"/><circle cx="24" cy="96" r="2" fill="#9b86e6" opacity="0.65"/><circle cx="36" cy="96" r="2" fill="#9b86e6" opacity="0.69"/><circle cx="48" cy="96" r="2" fill="#9b86e6" opacity="0.72"/><circle cx="60" cy="96" r="2" fill="#9b86e6" opacity="0.76"/><circle cx="72" cy="96" r="2" fill="#9b86e6" opacity="0.80"/><circle cx="84" cy="96" r="2" fill="#9b86e6" opacity="0.84"/><circle cx="96" cy="96" r="2" fill="#9b86e6" opacity="0.88"/><circle cx="108" cy="96" r="2" fill="#9b86e6" opacity="0.91"/><circle cx="12" cy="108" r="2" fill="#9b86e6" opacity="0.65"/><circle cx="24" cy="108" r="2" fill="#9b86e6" opacity="0.69"/><circle cx="36" cy="108" r="2" fill="#9b86e6" opacity="0.72"/><circle cx="48" cy="108" r="2" fill="#9b86e6" opacity="0.76"/><circle cx="60" cy="108" r="2" fill="#9b86e6" opacity="0.80"/><circle cx="72" cy="108" r="2" fill="#9b86e6" opacity="0.84"/><circle cx="84" cy="108" r="2" fill="#9b86e6" opacity="0.88"/><circle cx="96" cy="108" r="2" fill="#9b86e6" opacity="0.91"/><circle cx="108" cy="108" r="2" fill="#9b86e6" opacity="0.95"/></svg>