<svg xmlns="http://www.w3.org/2000/svg" viewBox="0 0 65 59" width="65" height="59">
<defs><linearGradient id="g_blob_purple" gradientUnits="userSpaceOnUse" x1="54.6" y1="49.8" x2="11.4" y2="16.5"><stop offset="10%" stop-color="rgb(113,228,246)"/><stop offset="30%" stop-color="rgb(119,215,248)"/><stop offset="50%" stop-color="rgb(135,195,249)"/><stop offset="70%" stop-color="rgb(168,173,250)"/><stop offset="90%" stop-color="rgb(174,154,246)"/></linearGradient></defs>
<path d="M 53.00,50.50 C 51.42,50.92 48.58,51.42 47.00,50.50 C 45.42,49.58 44.83,46.33 43.50,45.00 C 42.17,43.67 41.42,42.08 39.00,42.50 C 36.58,42.92 32.33,46.67 29.00,47.50 C 25.67,48.33 21.67,48.00 19.00,47.50 C 16.33,47.00 15.08,46.75 13.00,44.50 C 10.92,42.25 7.58,37.08 6.50,34.00 C 5.42,30.92 5.83,28.83 6.50,26.00 C 7.17,23.17 8.75,19.58 10.50,17.00 C 12.25,14.42 14.25,12.25 17.00,10.50 C 19.75,8.75 23.67,6.83 27.00,6.50 C 30.33,6.17 34.58,6.92 37.00,8.50 C 39.42,10.08 40.58,12.08 41.50,16.00 C 42.42,19.92 41.42,28.42 42.50,32.00 C 43.58,35.58 46.08,36.58 48.00,37.50 C 49.92,38.42 52.42,36.58 54.00,37.50 C 55.58,38.42 57.08,41.25 57.50,43.00 C 57.92,44.75 57.25,46.75 56.50,48.00 C 55.75,49.25 54.58,50.08 53.00,50.50 Z" fill="url(#g_blob_purple)"/></svg>