<svg xmlns="http://www.w3.org/2000/svg" viewBox="0 0 78 96" width="78" height="96">
<defs><linearGradient id="g_blob_figure8" gradientUnits="userSpaceOnUse" x1="55.5" y1="16.2" x2="20.1" y2="81.5"><stop offset="10%" stop-color="rgb(222,192,251)"/><stop offset="30%" stop-color="rgb(212,191,251)"/><stop offset="50%" stop-color="rgb(223,200,252)"/><stop offset="70%" stop-color="rgb(176,200,251)"/><stop offset="90%" stop-color="rgb(126,209,249)"/></linearGradient></defs>
<path d="M 28.00,84.50 C 25.33,84.33 22.58,83.25 20.00,81.50 C 17.42,79.75 14.08,77.25 12.50,74.00 C 10.92,70.75 9.92,65.42 10.50,62.00 C 11.08,58.58 13.58,55.42 16.00,53.50 C 18.42,51.58 22.58,51.92 25.00,50.50 C 27.42,49.08 29.58,47.25 30.50,45.00 C 31.42,42.75 31.00,39.17 30.50,37.00 C 30.00,34.83 28.00,33.83 27.50,32.00 C 27.00,30.17 26.58,28.25 27.50,26.00 C 28.42,23.75 30.75,20.42 33.00,18.50 C 35.25,16.58 37.00,14.83 41.00,14.50 C 45.00,14.17 53.08,14.75 57.00,16.50 C 60.92,18.25 62.92,21.75 64.50,25.00 C 66.08,28.25 67.42,32.58 66.50,36.00 C 65.58,39.42 60.42,44.08 59.00,45.50 C 57.58,46.92 59.08,44.08 58.00,44.50 C 56.92,44.92 54.58,45.58 52.50,48.00 C 50.42,50.42 46.67,55.50 45.50,59.00 C 44.33,62.50 46.00,66.50 45.50,69.00 C 45.00,71.50 43.00,72.67 42.50,74.00 C 42.00,75.33 43.58,75.58 42.50,77.00 C 41.42,78.42 38.42,81.25 36.00,82.50 C 33.58,83.75 30.67,84.67 28.00,84.50 Z" fill="url(#g_blob_figure8)"/></svg>